<mxfile host="app.diagrams.net" modified="2023-06-24T00:32:19.701Z" agent="Mozilla/5.0 (Macintosh; Intel Mac OS X 10_15_7) AppleWebKit/537.36 (KHTML, like Gecko) Chrome/114.0.0.0 Safari/537.36" etag="BOA3PoJmgCiL9z2gWppG" version="21.5.0" type="github">
  <diagram name="Page-1" id="efa7a0a1-bf9b-a30e-e6df-94a7791c09e9">
    <mxGraphModel dx="1026" dy="693" grid="1" gridSize="10" guides="1" tooltips="1" connect="1" arrows="1" fold="1" page="1" pageScale="1" pageWidth="826" pageHeight="1169" background="none" math="0" shadow="0">
      <root>
        <mxCell id="0" />
        <mxCell id="1" parent="0" />
        <mxCell id="IUOQPNjdf664gdYJtN-T-116" style="edgeStyle=orthogonalEdgeStyle;rounded=0;orthogonalLoop=1;jettySize=auto;html=1;exitX=1;exitY=0.5;exitDx=0;exitDy=0;" edge="1" parent="1" source="IUOQPNjdf664gdYJtN-T-114">
          <mxGeometry relative="1" as="geometry">
            <mxPoint x="180" y="270" as="targetPoint" />
          </mxGeometry>
        </mxCell>
        <mxCell id="IUOQPNjdf664gdYJtN-T-114" value="Client" style="rounded=1;whiteSpace=wrap;html=1;" vertex="1" parent="1">
          <mxGeometry x="10" y="240" width="120" height="60" as="geometry" />
        </mxCell>
        <mxCell id="IUOQPNjdf664gdYJtN-T-119" style="edgeStyle=orthogonalEdgeStyle;rounded=0;orthogonalLoop=1;jettySize=auto;html=1;exitX=0.5;exitY=0;exitDx=0;exitDy=0;" edge="1" parent="1" source="IUOQPNjdf664gdYJtN-T-118">
          <mxGeometry relative="1" as="geometry">
            <mxPoint x="320" y="265" as="targetPoint" />
          </mxGeometry>
        </mxCell>
        <mxCell id="IUOQPNjdf664gdYJtN-T-118" value="Load Balancers" style="rounded=0;whiteSpace=wrap;html=1;direction=south;" vertex="1" parent="1">
          <mxGeometry x="180" y="200" width="70" height="130" as="geometry" />
        </mxCell>
        <mxCell id="IUOQPNjdf664gdYJtN-T-120" value="API Gateways" style="rounded=0;whiteSpace=wrap;html=1;direction=south;" vertex="1" parent="1">
          <mxGeometry x="320" y="205" width="60" height="120" as="geometry" />
        </mxCell>
        <mxCell id="IUOQPNjdf664gdYJtN-T-124" value="" style="endArrow=classic;html=1;rounded=0;entryX=0;entryY=0.5;entryDx=0;entryDy=0;" edge="1" parent="1">
          <mxGeometry width="50" height="50" relative="1" as="geometry">
            <mxPoint x="380" y="230" as="sourcePoint" />
            <mxPoint x="540" y="150" as="targetPoint" />
          </mxGeometry>
        </mxCell>
        <mxCell id="IUOQPNjdf664gdYJtN-T-125" value="/api/campaign" style="text;html=1;align=center;verticalAlign=middle;resizable=0;points=[];autosize=1;strokeColor=none;fillColor=none;" vertex="1" parent="1">
          <mxGeometry x="390" y="160" width="100" height="30" as="geometry" />
        </mxCell>
        <mxCell id="IUOQPNjdf664gdYJtN-T-152" value="" style="edgeStyle=orthogonalEdgeStyle;rounded=0;orthogonalLoop=1;jettySize=auto;html=1;" edge="1" parent="1" source="IUOQPNjdf664gdYJtN-T-127">
          <mxGeometry relative="1" as="geometry">
            <mxPoint x="760" y="350" as="targetPoint" />
          </mxGeometry>
        </mxCell>
        <mxCell id="IUOQPNjdf664gdYJtN-T-127" value="" style="swimlane;startSize=0;" vertex="1" parent="1">
          <mxGeometry x="520" y="90" width="200" height="410" as="geometry" />
        </mxCell>
        <mxCell id="IUOQPNjdf664gdYJtN-T-139" value="Report" style="whiteSpace=wrap;html=1;aspect=fixed;" vertex="1" parent="IUOQPNjdf664gdYJtN-T-127">
          <mxGeometry x="60" y="320" width="80" height="80" as="geometry" />
        </mxCell>
        <mxCell id="IUOQPNjdf664gdYJtN-T-143" value="Campaign Management" style="swimlane;fontStyle=0;childLayout=stackLayout;horizontal=1;startSize=30;horizontalStack=0;resizeParent=1;resizeParentMax=0;resizeLast=0;collapsible=1;marginBottom=0;whiteSpace=wrap;html=1;" vertex="1" parent="IUOQPNjdf664gdYJtN-T-127">
          <mxGeometry x="20" y="30" width="120" height="60" as="geometry" />
        </mxCell>
        <mxCell id="IUOQPNjdf664gdYJtN-T-144" value="create_campaign()" style="text;strokeColor=none;fillColor=none;align=left;verticalAlign=middle;spacingLeft=4;spacingRight=4;overflow=hidden;points=[[0,0.5],[1,0.5]];portConstraint=eastwest;rotatable=0;whiteSpace=wrap;html=1;" vertex="1" parent="IUOQPNjdf664gdYJtN-T-143">
          <mxGeometry y="30" width="120" height="30" as="geometry" />
        </mxCell>
        <mxCell id="IUOQPNjdf664gdYJtN-T-157" value="Voucher Management" style="swimlane;fontStyle=0;childLayout=stackLayout;horizontal=1;startSize=30;horizontalStack=0;resizeParent=1;resizeParentMax=0;resizeLast=0;collapsible=1;marginBottom=0;whiteSpace=wrap;html=1;" vertex="1" parent="IUOQPNjdf664gdYJtN-T-127">
          <mxGeometry x="30" y="140" width="140" height="120" as="geometry" />
        </mxCell>
        <mxCell id="IUOQPNjdf664gdYJtN-T-158" value="generate()" style="text;strokeColor=none;fillColor=none;align=left;verticalAlign=middle;spacingLeft=4;spacingRight=4;overflow=hidden;points=[[0,0.5],[1,0.5]];portConstraint=eastwest;rotatable=0;whiteSpace=wrap;html=1;" vertex="1" parent="IUOQPNjdf664gdYJtN-T-157">
          <mxGeometry y="30" width="140" height="30" as="geometry" />
        </mxCell>
        <mxCell id="IUOQPNjdf664gdYJtN-T-159" value="Item 2" style="text;strokeColor=none;fillColor=none;align=left;verticalAlign=middle;spacingLeft=4;spacingRight=4;overflow=hidden;points=[[0,0.5],[1,0.5]];portConstraint=eastwest;rotatable=0;whiteSpace=wrap;html=1;" vertex="1" parent="IUOQPNjdf664gdYJtN-T-157">
          <mxGeometry y="60" width="140" height="30" as="geometry" />
        </mxCell>
        <mxCell id="IUOQPNjdf664gdYJtN-T-160" value="Item 3" style="text;strokeColor=none;fillColor=none;align=left;verticalAlign=middle;spacingLeft=4;spacingRight=4;overflow=hidden;points=[[0,0.5],[1,0.5]];portConstraint=eastwest;rotatable=0;whiteSpace=wrap;html=1;" vertex="1" parent="IUOQPNjdf664gdYJtN-T-157">
          <mxGeometry y="90" width="140" height="30" as="geometry" />
        </mxCell>
        <mxCell id="IUOQPNjdf664gdYJtN-T-129" value="Microservices Cluster" style="text;html=1;align=center;verticalAlign=middle;resizable=0;points=[];autosize=1;strokeColor=none;fillColor=none;" vertex="1" parent="1">
          <mxGeometry x="520" y="50" width="140" height="30" as="geometry" />
        </mxCell>
        <mxCell id="IUOQPNjdf664gdYJtN-T-131" value="" style="edgeStyle=none;orthogonalLoop=1;jettySize=auto;html=1;rounded=0;entryX=0;entryY=0.5;entryDx=0;entryDy=0;" edge="1" parent="1">
          <mxGeometry width="100" relative="1" as="geometry">
            <mxPoint x="380" y="260" as="sourcePoint" />
            <mxPoint x="540" y="280" as="targetPoint" />
            <Array as="points" />
          </mxGeometry>
        </mxCell>
        <mxCell id="IUOQPNjdf664gdYJtN-T-132" value="/api/vouchers/generate" style="text;html=1;align=center;verticalAlign=middle;resizable=0;points=[];autosize=1;strokeColor=none;fillColor=none;" vertex="1" parent="1">
          <mxGeometry x="380" y="228" width="150" height="30" as="geometry" />
        </mxCell>
        <mxCell id="IUOQPNjdf664gdYJtN-T-138" value="AUTH" style="text;html=1;align=center;verticalAlign=middle;resizable=0;points=[];autosize=1;strokeColor=none;fillColor=none;" vertex="1" parent="1">
          <mxGeometry x="320" y="175" width="60" height="30" as="geometry" />
        </mxCell>
        <mxCell id="IUOQPNjdf664gdYJtN-T-141" value="" style="endArrow=classic;html=1;rounded=0;exitX=1;exitY=0.25;exitDx=0;exitDy=0;entryX=0;entryY=0.5;entryDx=0;entryDy=0;" edge="1" parent="1" source="IUOQPNjdf664gdYJtN-T-120" target="IUOQPNjdf664gdYJtN-T-139">
          <mxGeometry width="50" height="50" relative="1" as="geometry">
            <mxPoint x="500" y="500" as="sourcePoint" />
            <mxPoint x="390" y="450" as="targetPoint" />
          </mxGeometry>
        </mxCell>
        <mxCell id="IUOQPNjdf664gdYJtN-T-142" value="/api/report" style="text;html=1;align=center;verticalAlign=middle;resizable=0;points=[];autosize=1;strokeColor=none;fillColor=none;rotation=20;" vertex="1" parent="1">
          <mxGeometry x="420" y="325" width="80" height="30" as="geometry" />
        </mxCell>
        <mxCell id="IUOQPNjdf664gdYJtN-T-153" value="DB (MongoDB)" style="shape=cylinder3;whiteSpace=wrap;html=1;boundedLbl=1;backgroundOutline=1;size=15;" vertex="1" parent="1">
          <mxGeometry x="766" y="310" width="60" height="80" as="geometry" />
        </mxCell>
      </root>
    </mxGraphModel>
  </diagram>
</mxfile>
